<?xml version="1.0" encoding="UTF-8"?>
<svg width="35px" height="32px" viewBox="0 0 35 32" version="1.1" xmlns="http://www.w3.org/2000/svg" xmlns:xlink="http://www.w3.org/1999/xlink">
    <title>EE9A74AE-88C7-4625-ABF0-2FBBEA35427E</title>
    <g id="Page-2" stroke="none" stroke-width="1" fill="none" fill-rule="evenodd" opacity="0.9">
        <g id="11" transform="translate(-960.000000, -2601.000000)" fill="#FFFFFF" fill-rule="nonzero">
            <g id="Section-3" transform="translate(0.000000, 2048.000000)">
                <g id="BLUR" transform="translate(910.000000, 0.000000)">
                    <g id="Text" transform="translate(50.000000, 274.000000)">
                        <g id="Clock-Icon" transform="translate(0.000000, 279.000000)">
                            <polygon id="Path" points="15.1664708 6.89408469 15.1664708 17.7111794 21.4161054 22.7497062 22.7497062 20.9526759 17.3764379 16.6186524 17.3764379 6.89385037"></polygon>
                            <path d="M15.9057098,31.7117117 C20.8729224,31.7117117 25.4569457,29.4472997 28.4985837,25.5301095 L26.7264387,24.1864498 C24.1073489,27.5651012 20.1794845,29.5219304 15.9039382,29.5219304 C8.35491489,29.5219304 2.23235734,23.4186443 2.23235734,15.8933824 C2.2338616,8.36965604 8.35645535,2.22721187 15.9054787,2.22721187 C22.8375479,2.22721187 28.5749905,7.40989914 29.46114,14.0890394 L27.8439653,12.515921 L26.2643778,14.0905366 L30.3862631,18.1591381 L34.4692519,14.089001 L32.8896644,12.5143854 L31.6576046,13.7425671 C30.6166004,5.98965088 23.9537651,0 15.9056327,0 C7.12462666,0 0,7.10220108 0,15.8555679 C0,24.6089348 7.12462666,31.7111359 15.9056327,31.7111359 L15.9057098,31.7117117 Z" id="Path"></path>
                        </g>
                    </g>
                </g>
            </g>
        </g>
    </g>
</svg>