<?xml version="1.0" encoding="UTF-8"?>
<svg width="39px" height="32px" viewBox="0 0 39 32" version="1.1" xmlns="http://www.w3.org/2000/svg" xmlns:xlink="http://www.w3.org/1999/xlink">
    <title>683FBB84-6678-4D00-BE64-54BBBD1006D2</title>
    <defs>
        <polygon id="path-1" points="0 0.281142023 27.3279991 0.281142023 27.3279991 30.6563692 0 30.6563692"></polygon>
    </defs>
    <g id="Page-2" stroke="none" stroke-width="1" fill="none" fill-rule="evenodd">
        <g id="11" transform="translate(-51.000000, -1854.000000)">
            <g id="Section-2" transform="translate(0.000000, 1024.000000)">
                <g id="Blur-content" transform="translate(0.000000, 776.000000)">
                    <g id="Health" transform="translate(50.000000, 50.000000)">
                        <g id="Health-Icon" transform="translate(1.000000, 4.000000)">
                            <path d="M30.3516367,12.8681919 C30.6914746,12.8681919 30.9677564,12.59191 30.9677564,12.2520721 L30.9677564,9.55879138 L33.661411,9.55879138 C34.0008751,9.55879138 34.2771569,9.28250953 34.2771569,8.94267163 C34.2771569,8.60320759 34.0008751,8.32692574 33.661411,8.32692574 L30.9677564,8.32692574 L30.9677564,5.63364498 C30.9677564,5.29380708 30.6914746,5.01752523 30.3516367,5.01752523 C30.0121726,5.01752523 29.7358908,5.29380708 29.7358908,5.63364498 L29.7358908,8.32692574 L27.0422361,8.32692574 C26.7027721,8.32692574 26.4264903,8.60320759 26.4264903,8.94267163 C26.4264903,9.28250953 26.7027721,9.55879138 27.0422361,9.55879138 L29.7358908,9.55879138 L29.7358908,12.2520721 C29.7358908,12.59191 30.0121726,12.8681919 30.3516367,12.8681919" id="Fill-1" fill="#FFFFFF"></path>
                            <path d="M30.3655068,1.61682833 C34.2749512,1.61682833 37.4609782,4.79949062 37.4673422,8.71117809 C37.4733155,12.6292212 34.2906532,15.8216038 30.3733579,15.8272117 L30.3041939,15.8230992 C30.2772761,15.8189868 30.251106,15.8171175 30.2249358,15.8163698 C26.3285766,15.7378594 23.2629322,12.6224917 23.2460122,8.72426316 C23.2319019,6.02836539 24.7908942,3.52724819 27.2179873,2.35258299 C28.1724495,1.87142636 29.2446773,1.61682833 30.3184006,1.61682833 L30.3655068,1.61682833 Z M26.666919,1.24969872 C23.8229731,2.63073414 21.9966715,5.56291084 22.0137486,8.71977685 C22.0336835,13.2550613 25.5999252,16.9132723 30.1333403,17.0478616 L30.1729694,17.0504786 C30.2286744,17.057208 30.2911089,17.0639375 30.3423276,17.059825 C34.9460282,17.059825 38.6891052,13.3197389 38.6891052,8.72202001 C38.6891052,4.12467499 34.9490191,0.384588828 30.351674,0.384588828 L30.3112973,0.384588828 C29.0510183,0.384588828 27.7907394,0.683676086 26.666919,1.24969872 L26.666919,1.24969872 Z" id="Fill-3" fill="#FFFFFF"></path>
                            <g id="Group-7" transform="translate(0.000000, 0.092717)">
                                <mask id="mask-2" fill="white">
                                    <use xlink:href="#path-1"></use>
                                </mask>
                                <g id="Clip-6"></g>
                                <path d="M27.1581325,20.3165488 C27.3914205,20.0761574 27.3835695,19.687344 27.1398134,19.4503173 C26.8990481,19.2174031 26.5221982,19.2174031 26.2818068,19.4510651 L26.2687217,19.4637763 L16.5633402,29.1687839 L16.5300667,29.1358843 L3.79642673,16.4022443 C0.396178459,13.0027438 0.3958046,7.47000336 3.79530515,4.06938123 C7.1948057,0.669506827 12.7271723,0.669132968 16.1274205,4.06825966 C16.2440645,4.18452983 16.3992161,4.24845973 16.5637141,4.24845973 C16.7285859,4.24845973 16.8829897,4.18452983 16.9985122,4.06825966 C18.2647728,2.79751267 19.8675067,1.96343308 21.6343647,1.65612092 C21.9685947,1.59742505 22.193284,1.27740168 22.1342142,0.942797809 C22.1058009,0.780542972 22.0157009,0.639224242 21.8811116,0.545011756 C21.7454008,0.450051552 21.583146,0.413039503 21.4205173,0.442200511 C19.7531058,0.731941292 18.1802807,1.45162001 16.8717739,2.52347397 L16.5637141,2.77582884 L16.2552803,2.52384783 C14.457392,1.05682483 12.2878878,0.281067251 9.98155122,0.281067251 C9.64320876,0.281067251 9.29925842,0.298638627 8.95942052,0.333033662 C6.31474144,0.601090617 3.93251143,1.88267952 2.25126718,3.94301687 C-0.990464841,7.91564337 -0.701097919,13.6461552 2.92421351,17.2722144 L16.1281682,30.4761691 C16.2444384,30.5920654 16.3988422,30.6563692 16.5633402,30.6563692 C16.728212,30.6563692 16.8826158,30.5924393 16.9981383,30.476543 L27.1581325,20.3165488 Z" id="Fill-5" fill="#FFFFFF" mask="url(#mask-2)"></path>
                            </g>
                        </g>
                    </g>
                </g>
            </g>
        </g>
    </g>
</svg>