<?xml version="1.0" encoding="UTF-8"?>
<svg width="43px" height="42px" viewBox="0 0 43 42" version="1.1" xmlns="http://www.w3.org/2000/svg" xmlns:xlink="http://www.w3.org/1999/xlink">
    <title>4F9600F4-BCEE-46B2-AA95-D9DBFFAE5981</title>
    <g id="Membership" stroke="none" stroke-width="1" fill="none" fill-rule="evenodd">
        <g id="Memberships" transform="translate(-530.000000, -3672.000000)" fill="#F2F2F2" fill-rule="nonzero">
            <g id="Section-4" transform="translate(0.000000, 2795.000000)">
                <g id="Group-19" transform="translate(530.000000, 877.000000)">
                    <g id="np_event-waiting_561157_F2F2F2">
                        <path d="M6.68181818,0 C5.6322,0 4.77272727,0.859472727 4.77272727,1.90909091 L4.77272727,3.81818182 L1.43181818,3.81818182 C0.646943182,3.81818182 0,4.465125 0,5.25 L0,36.75 C0,37.534875 0.646943182,38.1818182 1.43181818,38.1818182 L29.4715909,38.1818182 C30.6740795,40.4525864 33.0529977,42 35.7954545,42 C39.7441227,42 42.9545455,38.7895773 42.9545455,34.8409091 C42.9545455,32.0984523 41.4071318,29.7197727 39.1363636,28.5170455 L39.1363636,5.25 C39.1363636,4.465125 38.4894205,3.81818182 37.7045455,3.81818182 L34.3636364,3.81818182 L34.3636364,1.90909091 C34.3636364,0.859472727 33.5041636,0 32.4545455,0 C31.4049273,0 30.5454545,0.859472727 30.5454545,1.90909091 L30.5454545,3.81818182 L25.7727273,3.81818182 L25.7727273,1.90909091 C25.7727273,0.859472727 24.9132545,0 23.8636364,0 C22.8140182,0 21.9545455,0.859472727 21.9545455,1.90909091 L21.9545455,3.81818182 L17.1818182,3.81818182 L17.1818182,1.90909091 C17.1818182,0.859472727 16.3223455,0 15.2727273,0 C14.2231091,0 13.3636364,0.859472727 13.3636364,1.90909091 L13.3636364,3.81818182 L8.59090909,3.81818182 L8.59090909,1.90909091 C8.59090909,0.859472727 7.73143636,0 6.68181818,0 Z M6.68181818,0.954545455 C7.21875,0.954545455 7.63636364,1.37215909 7.63636364,1.90909091 L7.63636364,6.68181818 C7.63636364,7.21875 7.21875,7.63636364 6.68181818,7.63636364 C6.14488636,7.63636364 5.72727273,7.21875 5.72727273,6.68181818 L5.72727273,1.90909091 C5.72727273,1.37215909 6.14488636,0.954545455 6.68181818,0.954545455 Z M15.2727273,0.954545455 C15.8096591,0.954545455 16.2272727,1.37215909 16.2272727,1.90909091 L16.2272727,6.68181818 C16.2272727,7.21875 15.8096591,7.63636364 15.2727273,7.63636364 C14.7357955,7.63636364 14.3181818,7.21875 14.3181818,6.68181818 L14.3181818,1.90909091 C14.3181818,1.37215909 14.7357955,0.954545455 15.2727273,0.954545455 Z M23.8636364,0.954545455 C24.4005682,0.954545455 24.8181818,1.37215909 24.8181818,1.90909091 L24.8181818,6.68181818 C24.8181818,7.21875 24.4005682,7.63636364 23.8636364,7.63636364 C23.3267045,7.63636364 22.9090909,7.21875 22.9090909,6.68181818 L22.9090909,1.90909091 C22.9090909,1.37215909 23.3267045,0.954545455 23.8636364,0.954545455 Z M32.4545455,0.954545455 C32.9914773,0.954545455 33.4090909,1.37215909 33.4090909,1.90909091 L33.4090909,6.68181818 C33.4090909,7.21875 32.9914773,7.63636364 32.4545455,7.63636364 C31.9176136,7.63636364 31.5,7.21875 31.5,6.68181818 L31.5,1.90909091 C31.5,1.37215909 31.9176136,0.954545455 32.4545455,0.954545455 Z M1.43181818,4.77272727 L4.77272727,4.77272727 L4.77272727,6.68181818 C4.77272727,7.73143636 5.6322,8.59090909 6.68181818,8.59090909 C7.73143636,8.59090909 8.59090909,7.73143636 8.59090909,6.68181818 L8.59090909,4.77272727 L13.3636364,4.77272727 L13.3636364,6.68181818 C13.3636364,7.73143636 14.2231091,8.59090909 15.2727273,8.59090909 C16.3223455,8.59090909 17.1818182,7.73143636 17.1818182,6.68181818 L17.1818182,4.77272727 L21.9545455,4.77272727 L21.9545455,6.68181818 C21.9545455,7.73143636 22.8140182,8.59090909 23.8636364,8.59090909 C24.9132545,8.59090909 25.7727273,7.73143636 25.7727273,6.68181818 L25.7727273,4.77272727 L30.5454545,4.77272727 L30.5454545,6.68181818 C30.5454545,7.73143636 31.4049273,8.59090909 32.4545455,8.59090909 C33.5041636,8.59090909 34.3636364,7.73143636 34.3636364,6.68181818 L34.3636364,4.77272727 L37.7045455,4.77272727 C37.9767389,4.77272727 38.1818182,4.97780659 38.1818182,5.25 L38.1818182,11.4545455 L0.954545455,11.4545455 L0.954545455,5.25 C0.954545455,4.97780659 1.15962477,4.77272727 1.43181818,4.77272727 Z M0.954545455,12.4090909 L38.1818182,12.4090909 L38.1818182,28.0994318 C37.4360795,27.8346934 36.6306818,27.6818182 35.7954545,27.6818182 C31.8467864,27.6818182 28.6363636,30.8922409 28.6363636,34.8409091 C28.6363636,35.6761364 28.7892389,36.4815341 29.0539773,37.2272727 L1.43181818,37.2272727 C1.15962477,37.2272727 0.954545455,37.0221934 0.954545455,36.75 L0.954545455,12.4090909 Z M35.7954545,28.6363636 C39.2277136,28.6363636 42,31.40865 42,34.8409091 C42,38.2731682 39.2277136,41.0454545 35.7954545,41.0454545 C32.3631955,41.0454545 29.5909091,38.2731682 29.5909091,34.8409091 C29.5909091,31.40865 32.3631955,28.6363636 35.7954545,28.6363636 Z M35.7954545,30.5454545 C35.5325823,30.5454545 35.3181818,30.759855 35.3181818,31.0227273 L35.3181818,34.8409091 C35.3181818,35.1037814 35.5325823,35.3181818 35.7954545,35.3181818 L39.1363636,35.3181818 C39.3992359,35.3181818 39.6136364,35.1037814 39.6136364,34.8409091 C39.6136364,34.5780368 39.3992359,34.3636364 39.1363636,34.3636364 L36.2727273,34.3636364 L36.2727273,31.0227273 C36.2727273,30.759855 36.0583268,30.5454545 35.7954545,30.5454545 Z" id="Shape"></path>
                    </g>
                </g>
            </g>
        </g>
    </g>
</svg>