<?xml version="1.0" encoding="UTF-8"?>
<svg width="40px" height="40px" viewBox="0 0 40 40" version="1.1" xmlns="http://www.w3.org/2000/svg" xmlns:xlink="http://www.w3.org/1999/xlink">
    <title>73D34CEF-EABF-448A-A053-C42CFC2D9A2B</title>
    <g id="Membership" stroke="none" stroke-width="1" fill="none" fill-rule="evenodd">
        <g id="Memberships" transform="translate(-1010.000000, -3474.000000)" fill="#F2F2F2" fill-rule="nonzero">
            <g id="Section-4" transform="translate(0.000000, 2795.000000)">
                <g id="Group-22" transform="translate(1010.000000, 679.000000)">
                    <g id="np_party-invitation_2122267_F2F2F2">
                        <path d="M40,15.094 C40,15.0881405 39.996094,15.082281 39.996094,15.076422 C39.9941405,15.019782 39.984375,14.965092 39.9628905,14.912362 C39.9609375,14.9065025 39.9609375,14.900643 39.957031,14.896737 C39.935547,14.845957 39.902346,14.799082 39.863281,14.758067 C39.855469,14.7483015 39.847656,14.740489 39.8378905,14.7326765 C39.828125,14.7229105 39.8203125,14.713145 39.810547,14.7033795 L34.084047,10.1682295 C34.068422,10.1545575 34.0488905,10.1526045 34.031312,10.1408855 L34.031312,5.7189855 C34.031312,5.4416405 33.806702,5.2189855 33.531312,5.2189855 L27.837812,5.2170325 L22.269312,0.8068825 C20.907962,-0.2732175 19.005662,-0.2712175 17.646262,0.810789 L12.115262,5.213139 C12.1133085,5.2150925 12.1133085,5.2170455 12.1113555,5.2170455 L6.0703555,5.2170455 C5.7949655,5.2170455 5.5703555,5.4397005 5.5703555,5.7170455 L5.5703555,10.4201455 L0.1873555,14.7033455 C0.17759,14.711158 0.1697775,14.7209235 0.1600115,14.7306895 L0.132668,14.758033 C0.0936055,14.7990485 0.062358,14.843973 0.038918,14.896703 C0.036965,14.9025625 0.0350115,14.9084215 0.0330585,14.914281 C0.0135275,14.965061 0.0018085,15.021701 -0.0001445,15.078341 C0.0037615,15.082247 -0.0001445,15.0881065 -0.0001445,15.093966 L-0.0001445,39.499966 C-0.0001445,39.513638 0.005715,39.5253565 0.007668,39.5370755 C0.009621,39.5702785 0.0174335,39.6015305 0.0271995,39.6347305 C0.036965,39.667934 0.0467305,39.6991855 0.0623555,39.7284805 C0.068215,39.7401995 0.068215,39.753871 0.0760275,39.763637 C0.0936055,39.7909805 0.1131365,39.812465 0.1346225,39.833947 C0.140482,39.8398065 0.1463415,39.849572 0.152201,39.8554315 C0.1932165,39.8944935 0.240091,39.9257415 0.290871,39.9491815 C0.30259,39.9550405 0.3143085,39.958947 0.3279805,39.962853 C0.3826705,39.9823845 0.4412605,39.9980095 0.4998555,39.9980095 L0.4998555,39.9999625 L39.4998555,39.9999625 C39.7752455,39.9999625 40,39.7773075 40,39.4999625 L40,15.094 Z M39,38.598 L20.9435,27.297 L39,15.996 L39,38.598 Z M1,15.9965 L19.0585,27.2975 L1,38.5985 L1,15.9965 Z M20,27.887 L37.76,39.0005 L2.2425,39.0005 L20,27.887 Z M38.635,15.047 L34.03345,17.92785 L34.03345,11.40235 L38.635,15.047 Z M18.2715,1.594 C19.26565,0.803 20.6543,0.80105 21.6504,1.590094 L26.2285,5.217044 L13.717,5.217044 L18.2715,1.594 Z M33.0315,6.21705 L33.0315,18.55305 L20.0005,26.70755 L6.571,18.30305 L6.571,6.21705 L33.0315,6.21705 Z M5.5705,11.69755 L5.5705,17.67805 L1.36345,15.04525 L5.5705,11.69755 Z" id="Shape"></path>
                        <path d="M16.406,17.293 L15.72435,21.26565 C15.6931,21.45315 15.7692715,21.642605 15.92357,21.75393 C16.077865,21.86721 16.282945,21.880885 16.45092,21.792993 L20.01927,19.917993 L23.58762,21.792993 C23.66184,21.832055 23.739965,21.851588 23.82004,21.851588 C23.923555,21.851588 24.02707,21.820338 24.11301,21.755883 C24.267305,21.644553 24.34348,21.455103 24.31223,21.267603 L23.63058,17.294953 L26.51728,14.480503 C26.654,14.347688 26.702825,14.148473 26.644235,13.968803 C26.58564,13.789113 26.42939,13.656303 26.23994,13.628958 L22.24969,13.048858 L20.46454,9.433608 C20.29657,9.091813 19.73604,9.091813 19.56804,9.433608 L17.78289,13.048858 L13.79264,13.628958 C13.60514,13.656302 13.446935,13.789113 13.388345,13.968803 C13.32975,14.150443 13.378579,14.347708 13.5153,14.480503 L16.406,17.293 Z M18.19115,13.9981 C18.35326,13.9746625 18.49584,13.8731 18.568105,13.72466 L20.021205,10.78326 L21.474305,13.72466 C21.54657,13.8731 21.68915,13.97466 21.85126,13.9981 L25.09736,14.470755 L22.74776,16.761755 C22.63057,16.87699 22.575885,17.043005 22.60323,17.20316 L23.15793,20.43756 L20.25363,18.91021 C20.1091,18.832085 19.93332,18.832085 19.788785,18.91021 L16.884485,20.43756 L17.439185,17.20316 C17.466529,17.04105 17.4137945,16.875035 17.294655,16.761755 L14.945055,14.470755 L18.19115,13.9981 Z" id="Shape"></path>
                    </g>
                </g>
            </g>
        </g>
    </g>
</svg>