<?xml version="1.0" encoding="UTF-8"?>
<svg width="40px" height="40px" viewBox="0 0 40 40" version="1.1" xmlns="http://www.w3.org/2000/svg" xmlns:xlink="http://www.w3.org/1999/xlink">
    <title>68F2ECFD-A506-4345-B8CA-2E5DE852ED77</title>
    <g id="Membership" stroke="none" stroke-width="1" fill="none" fill-rule="evenodd">
        <g id="Memberships" transform="translate(-50.000000, -3475.000000)" fill="#FFFFFF" fill-rule="nonzero">
            <g id="Section-4" transform="translate(0.000000, 2795.000000)">
                <g id="Group-17" transform="translate(50.000000, 679.000000)">
                    <g id="np_plane_1825654_000000" transform="translate(0.000000, 1.000000)">
                        <path d="M38.3726121,1.25834634 C36.7341256,-0.380140149 33.9743959,-0.458302311 32.2580175,1.25834634 L24.8531527,8.6632112 L8.74017968,3.03834634 L8.73806779,3.03834634 C8.54170022,2.97077877 8.32210563,3.02145445 8.17639211,3.16925985 L3.59022995,7.75542201 C3.47198671,7.87366526 3.4149759,8.04047066 3.43608941,8.20728147 C3.457204,8.37197877 3.55221914,8.51977877 3.69791644,8.60423823 L17.612511,16.6658599 L9.10764617,25.1707247 L3.62602454,24.8012166 C3.4697759,24.7906593 3.31774887,24.8455582 3.20794887,24.9553571 L0.150543464,28.0127626 L0.150543464,28.0148744 C0.0344137341,28.1352312 -0.0204889687,28.3041501 0.0069650854,28.4709555 C0.0323029232,28.6356528 0.133656977,28.7813447 0.281456977,28.8615826 L7.01713265,32.6115826 L10.7671327,39.3472582 L10.769244,39.3493701 C10.8494818,39.4971755 10.9930602,39.5985269 11.159871,39.623862 C11.3266764,39.6491999 11.4955954,39.5964128 11.6159521,39.4802836 L14.6733575,36.4228782 C14.7831521,36.3130836 14.8401629,36.1589431 14.8296062,36.0048026 L14.4600981,30.5210188 L22.9649629,22.0161539 L31.0265845,35.9307485 L31.0265845,35.9328599 C31.111044,36.0764382 31.2567359,36.173568 31.4235413,36.1946869 C31.5882386,36.215802 31.755044,36.1587917 31.8732872,36.0405463 L36.4594494,31.4543842 C36.6093629,31.3065788 36.6600386,31.0890977 36.592471,30.8927085 L30.9676062,14.7797355 L38.372471,7.37487066 C40.0891197,5.65822201 40.0109575,2.89638418 38.372471,1.26027607 L38.3726121,1.25834634 Z M37.6082337,2.02272472 C38.8286662,3.24315715 38.9025581,5.3145085 37.6082337,6.60888688 L29.9622878,14.2548328 C29.822931,14.4005247 29.776477,14.6137842 29.8440445,14.8038058 L35.4689094,30.9167788 L31.6112337,34.7744544 L23.5496121,20.8598599 L23.5475008,20.8598599 C23.4630413,20.7162761 23.3173494,20.6191517 23.1505386,20.5980328 C22.9858413,20.5769182 22.8190359,20.6339285 22.7007927,20.7521734 L13.5261981,29.926768 C13.4163981,30.0365626 13.3615008,30.188595 13.3720575,30.3448436 L13.7415656,35.8286274 L11.3640521,38.2061409 L7.8885386,31.9580328 L7.8885386,31.9559209 C7.83997427,31.8651263 7.76396022,31.7912236 7.67316563,31.740548 L1.42505752,28.2650344 L3.80257103,25.8875209 L9.28419265,26.257029 L9.28630454,26.2591409 C9.44255319,26.2696982 9.59458022,26.212688 9.70438022,26.1028923 L18.8768127,16.9304599 L18.878924,16.9304599 C18.9971672,16.8122166 19.0541781,16.6454112 19.0330645,16.4807139 C19.0119494,16.3139085 18.9148213,16.1682166 18.7712375,16.0816436 L4.85664292,8.02002201 L8.7143186,4.16234634 L24.8272916,9.7872112 C25.017324,9.85266526 25.2305835,9.80832634 25.3762645,9.66896796 L33.0200483,2.02518418 C34.3143727,0.730859851 36.3857781,0.804751743 37.6062105,2.02518418 L37.6082337,2.02272472 Z" id="Shape"></path>
                    </g>
                </g>
            </g>
        </g>
    </g>
</svg>