<?xml version="1.0" encoding="UTF-8"?>
<svg width="127px" height="30px" viewBox="0 0 127 30" version="1.1" xmlns="http://www.w3.org/2000/svg" xmlns:xlink="http://www.w3.org/1999/xlink">
    <title>FB73C625-8CBF-472C-B311-5FCAAC7130DC</title>
    <g id="Handover" stroke="none" stroke-width="1" fill="none" fill-rule="evenodd">
        <g id="Homepage" transform="translate(-657.000000, -5197.000000)" fill="#0A253E" fill-rule="nonzero">
            <g id="Section-5" transform="translate(0.000000, 4946.000000)">
                <g id="Logos" transform="translate(208.000000, 250.000000)">
                    <path d="M564.505865,5.70888952 L568.640688,5.70888952 L568.640688,2.04042412 L571.572637,2.04042412 L571.572637,5.70888952 L575.707459,5.70888952 L575.707459,8.53005775 L571.572637,8.53005775 L571.572637,12.1985231 L568.640688,12.1985231 L568.640688,8.53005775 L564.505865,8.53005775 L564.505865,5.70888952 Z M565.562002,27.5843037 L576,27.5843037 L576,30.702736 L561.896366,30.702736 L561.896366,18.1684181 L575.707459,18.1684181 L575.707459,21.287797 L565.561068,21.287797 L565.561068,22.9511502 L573.845668,22.9511502 L573.845668,25.7723185 L565.561068,25.7723185 L565.561068,27.5843037 L565.562002,27.5843037 Z M561.397271,13.5352646 L547.43944,13.5352646 L547.43944,1.0009467 L551.105076,1.0009467 L551.105076,10.4168323 L561.397271,10.4168323 L561.397271,13.5352646 Z M552.555629,22.4314115 C552.555629,21.6882514 552.086443,21.287797 550.957404,21.287797 L544.712177,21.287797 L544.712177,23.575026 L550.958339,23.575026 C552.086443,23.575026 552.556564,23.1736249 552.556564,22.4314115 L552.555629,22.4314115 Z M550.04894,26.6186689 L544.712177,26.6186689 L544.712177,30.702736 L541.04654,30.702736 L541.04654,18.1684181 L550.811601,18.1684181 C554.550139,18.1684181 556.368003,20.0248982 556.368003,22.3859699 C556.368003,24.0796175 555.356729,25.3415696 553.538865,25.9805926 L557.263383,30.702736 L553.157534,30.702736 L550.04894,26.6186689 L550.04894,26.6186689 Z M531.399243,10.4168323 L541.83911,10.4168323 L541.83911,13.5352646 L527.733607,13.5352646 L527.733607,1.0009467 L541.545635,1.0009467 L541.545635,4.11937896 L531.399243,4.11937896 L531.399243,5.78273218 L539.682909,5.78273218 L539.682909,8.60390041 L531.399243,8.60390041 L531.399243,10.4168323 Z M531.810483,25.0594528 L531.810483,18.1684181 L535.475184,18.1684181 L535.475184,25.2080848 C535.475184,29.0393828 532.953541,31 527.822397,31 C522.69032,31 520.167741,29.0403295 520.167741,25.2080848 L520.167741,18.1684181 L523.833377,18.1684181 L523.833377,25.0603995 C523.833377,26.9310802 524.97737,27.7329357 527.822397,27.7329357 C530.66649,27.7329357 531.809548,26.9310802 531.809548,25.0594528 L531.810483,25.0594528 Z M517.074101,13.5352646 L513.774841,13.5352646 L506.297766,1.0009467 L510.431654,1.0009467 L515.475876,9.58468238 L520.520098,1.0009467 L524.552111,1.0009467 L517.075036,13.5352646 L517.074101,13.5352646 Z M512.924324,22.0896526 C510.109205,21.1098173 508.584816,20.8570482 506.737044,20.8570482 C504.406066,20.8570482 503.892951,21.2423554 503.892951,21.778188 C503.892951,22.1634952 504.186426,22.3859699 505.153773,22.4749598 L510.50549,22.936003 C514.2001,23.2484143 515.49083,24.777336 515.49083,26.8117959 C515.49083,29.2173625 512.910305,31 507.675417,31 C505.300511,31 502.133035,30.4954085 499.347824,29.5591215 L501.282517,26.5003313 C504.039689,27.5246616 506.679097,27.9857048 508.598836,27.9857048 C511.121414,27.9857048 511.678456,27.5843037 511.678456,27.0797122 C511.678456,26.6783111 511.399935,26.3668465 510.29987,26.2627095 L505.094891,25.7723185 C501.561973,25.4457067 500.227315,24.0947647 500.227315,22.0603048 C500.227315,19.9065606 502.236779,17.8721007 507.455778,17.8721007 C509.727874,17.8721007 512.117735,18.3170501 514.713214,19.2826848 L512.924324,22.0896526 L512.924324,22.0896526 Z M500.491816,8.44012118 L498.292622,4.58042223 L496.093427,8.44012118 L500.491816,8.44012118 Z M490.463189,30.7017893 L494.128825,30.7017893 L494.128825,18.1674714 L490.463189,18.1674714 L490.463189,30.7017893 Z M502.192851,11.4108681 L494.393327,11.4108681 L493.176432,13.5343179 L489.217321,13.5343179 L496.694397,1 L499.993656,1 L507.470732,13.5343179 L503.409745,13.5343179 L502.192851,11.4108681 L502.192851,11.4108681 Z M482.267379,5.26299347 C482.267379,4.52078008 481.798193,4.11937896 480.669154,4.11937896 L474.423927,4.11937896 L474.423927,6.40660797 L480.669154,6.40660797 C481.798193,6.40660797 482.267379,6.00520685 482.267379,5.26299347 Z M474.423927,27.5843037 L484.861924,27.5843037 L484.861924,30.702736 L470.75829,30.702736 L470.75829,18.1684181 L484.569384,18.1684181 L484.569384,21.287797 L474.423927,21.287797 L474.423927,22.9511502 L482.707592,22.9511502 L482.707592,25.7723185 L474.423927,25.7723185 L474.423927,27.5843037 L474.423927,27.5843037 Z M479.760689,9.45119758 L474.423927,9.45119758 L474.423927,13.5352646 L470.75829,13.5352646 L470.75829,1.0009467 L480.522417,1.0009467 C484.260954,1.0009467 486.079753,2.85648017 486.079753,5.21849853 C486.079753,6.91119947 485.067544,8.17409827 483.24968,8.81217457 L486.974198,13.5352646 L482.868349,13.5352646 L479.760689,9.45119758 Z M465.918753,30.702736 L451.962791,30.702736 L451.962791,18.1684181 L455.626558,18.1684181 L455.626558,27.5843037 L465.918753,27.5843037 L465.918753,30.702736 L465.918753,30.702736 Z M449,1.0009467 L465.919688,1.0009467 L465.919688,4.11937896 L459.293129,4.11937896 L459.293129,13.5352646 L455.626558,13.5352646 L455.626558,4.11937896 L449,4.11937896 L449,1.0009467 Z" id="Active-Travel-+-Leisure"></path>
                </g>
            </g>
        </g>
    </g>
</svg>