<?xml version="1.0" encoding="UTF-8"?>
<svg width="36px" height="34px" viewBox="0 0 36 34" version="1.1" xmlns="http://www.w3.org/2000/svg" xmlns:xlink="http://www.w3.org/1999/xlink">
    <title>B247C235-DAE0-4D02-A95C-026581DBCE49</title>
    <g id="Page-2" stroke="none" stroke-width="1" fill="none" fill-rule="evenodd">
        <g id="11" transform="translate(-530.000000, -1854.000000)" fill="#FFFFFF">
            <g id="Section-2" transform="translate(0.000000, 1024.000000)">
                <g id="Blur-content" transform="translate(0.000000, 776.000000)">
                    <g id="Optionality" transform="translate(529.000000, 50.000000)">
                        <g id="Optionality-Icon" transform="translate(1.000000, 4.000000)">
                            <path d="M4.16314368,7.86064368 L1.35560345,5.05310345 L4.16314368,2.24595402 L16.3167759,2.24595402 L16.3167759,7.86064368 L4.16314368,7.86064368 Z M17.4395575,32.5653563 L18.5627299,32.5653563 L18.5627299,1.12278161 L17.4395575,1.12278161 L17.4395575,32.5653563 Z M31.4076954,6.73747126 L34.2148448,9.54501149 L31.4076954,12.3525517 L19.6855115,12.3525517 L19.6855115,6.73747126 L31.4076954,6.73747126 Z M4.16353448,16.844069 L1.35599425,14.0369195 L4.16353448,11.2293793 L16.3171667,11.2293793 L16.3171667,16.844069 L4.16353448,16.844069 Z M3.93022414,10.1065977 C3.78132759,10.1065977 3.6382931,10.1652184 3.53316667,10.2707356 L0.164431034,13.6394713 C-0.0548103448,13.8587126 -0.0548103448,14.2151264 0.164431034,14.433977 L3.53316667,17.8027126 C3.6382931,17.9078391 3.78132759,17.9672414 3.93022414,17.9672414 L16.3167759,17.9672414 L16.3167759,33.1269425 C16.3167759,33.2758391 16.3757874,33.4188736 16.4813046,33.524 C16.5860402,33.6295172 16.7294655,33.6885287 16.8783621,33.6885287 L19.1239253,33.6885287 C19.2728218,33.6885287 19.4158563,33.6295172 19.5213736,33.524 C19.6265,33.4192644 19.6859023,33.2758391 19.6859023,33.1269425 L19.6859023,13.4753333 L31.6410057,13.4753333 C31.7895115,13.4753333 31.9329368,13.4163218 32.0380632,13.3111954 L35.4067989,9.94245977 C35.6260402,9.72321839 35.6260402,9.3668046 35.4067989,9.14756322 L32.0380632,5.77882759 C31.9329368,5.67370115 31.7895115,5.61468966 31.6410057,5.61468966 L19.6859023,5.61468966 L19.6859023,0.561586207 C19.6859023,0.412689655 19.6265,0.269655172 19.5213736,0.164528736 C19.4158563,0.0590114943 19.2728218,0 19.1239253,0 L16.8783621,0 C16.5680632,0 16.3167759,0.251287356 16.3167759,0.561586207 L16.3167759,1.12317241 L3.93022414,1.12317241 C3.78132759,1.12317241 3.6382931,1.18218391 3.53316667,1.28731034 L0.164431034,4.65604598 C-0.0548103448,4.87489655 -0.0548103448,5.23170115 0.164431034,5.45055172 L3.53316667,8.81967816 C3.6382931,8.9248046 3.78132759,8.98381609 3.93022414,8.98381609 L16.3167759,8.98381609 L16.3167759,10.1065977 L3.93022414,10.1065977 Z" id="Fill-7"></path>
                            <polygon id="Fill-8" points="5.64886552 5.61472874 7.89481954 5.61472874 7.89481954 4.49155632 5.64886552 4.49155632"></polygon>
                            <polygon id="Fill-9" points="9.01760115 5.61472874 15.1942678 5.61472874 15.1942678 4.49155632 9.01760115 4.49155632"></polygon>
                            <polygon id="Fill-10" points="5.64886552 14.598154 11.8255322 14.598154 11.8255322 13.4753724 5.64886552 13.4753724"></polygon>
                            <polygon id="Fill-11" points="12.9483138 14.598154 15.1942678 14.598154 15.1942678 13.4753724 12.9483138 13.4753724"></polygon>
                            <polygon id="Fill-12" points="20.8085667 10.1066368 25.8616701 10.1066368 25.8616701 8.98346437 20.8085667 8.98346437"></polygon>
                            <polygon id="Fill-13" points="26.9848425 10.1066368 30.353969 10.1066368 30.353969 8.98346437 26.9848425 8.98346437"></polygon>
                        </g>
                    </g>
                </g>
            </g>
        </g>
    </g>
</svg>