<?xml version="1.0" encoding="UTF-8"?>
<svg width="33px" height="33px" viewBox="0 0 33 33" version="1.1" xmlns="http://www.w3.org/2000/svg" xmlns:xlink="http://www.w3.org/1999/xlink">
    <title>E338C5A9-D692-4CEE-879B-C7C0CD3F7231</title>
    <g id="Page-2" stroke="none" stroke-width="1" fill="none" fill-rule="evenodd">
        <g id="11" transform="translate(-1010.000000, -1854.000000)" fill="#FFFFFF">
            <g id="Section-2" transform="translate(0.000000, 1024.000000)">
                <g id="Blur-content" transform="translate(0.000000, 776.000000)">
                    <g id="Zero" transform="translate(1009.000000, 50.000000)">
                        <g id="Zero-Icon" transform="translate(1.000000, 4.000000)">
                            <path d="M16.3881954,9.42128276 C10.1107011,9.42128276 5.00327586,14.528708 5.00327586,20.8062023 C5.00327586,21.1000874 5.26511494,21.3677885 5.55704598,21.3791218 L5.57697701,21.3791218 C5.87711494,21.3791218 6.15145977,21.104777 6.15145977,20.8042483 C6.15145977,15.1598575 10.7438046,10.5679034 16.3881954,10.5679034 C16.6883333,10.5679034 16.9615057,10.2943402 16.9615057,9.9945931 C16.9615057,9.69445517 16.6883333,9.42128276 16.3881954,9.42128276" id="Fill-1"></path>
                            <path d="M1.14662069,31.3726207 L31.6305517,31.3726207 L31.6305517,28.9762069 L1.14662069,28.9762069 L1.14662069,31.3726207 Z M3.33786207,27.8663218 L29.4373563,27.8663218 L29.4373563,26.1647586 L3.33786207,26.1647586 L3.33786207,27.8663218 Z M1.14662069,25.0169655 L1.14662069,23.508069 L1.18296552,23.4990805 C2.43197701,23.2051954 3.33786207,22.0722529 3.33786207,20.806046 C3.33786207,13.6101609 9.19211494,7.75551724 16.3883908,7.75551724 C23.5850575,7.75551724 29.4393103,13.6101609 29.4393103,20.806046 C29.4393103,22.0925747 30.3256552,23.2005057 31.5938161,23.4990805 L31.6305517,23.508069 L31.6305517,25.0169655 L1.14662069,25.0169655 Z M15.2824138,2.17912644 C15.2824138,1.56947126 15.7783448,1.07314943 16.3883908,1.07314943 C16.998046,1.07314943 17.4943678,1.56947126 17.4943678,2.17912644 C17.4943678,2.78917241 16.998046,3.28510345 16.3883908,3.28510345 C15.7783448,3.28510345 15.2824138,2.78917241 15.2824138,2.17912644 L15.2824138,2.17912644 Z M0.573310345,32.5192414 L32.2030805,32.5192414 C32.5032184,32.5192414 32.7763908,32.246069 32.7763908,31.945931 L32.7763908,28.4036782 C32.7763908,28.1035402 32.5032184,27.8303678 32.2030805,27.8303678 L30.5851494,27.8303678 L30.5851494,26.1288046 L32.2503678,26.1276322 L32.2503678,26.1624138 C32.5313563,26.1358391 32.7763908,25.8755632 32.7763908,25.5914483 L32.7763908,22.9976782 C32.7763908,22.697931 32.5032184,22.4247586 32.2030805,22.4247586 C31.296023,22.4247586 30.5851494,21.7134943 30.5851494,20.806046 C30.5851494,17.1313103 29.1774713,13.6425977 26.6212184,10.9823908 C24.070046,8.32687356 20.6551954,6.78710345 17.0070345,6.6468046 L16.9613103,6.64485057 L16.9613103,4.37154023 L16.9964828,4.36216092 C17.9656782,4.10188506 18.6417701,3.21944828 18.6417701,2.21664368 C18.6417701,0.994206897 17.6471724,1.49213975e-13 16.4251264,1.49213975e-13 C15.2030805,1.49213975e-13 14.2084828,0.994206897 14.2084828,2.21664368 C14.2084828,3.24524138 14.8701149,4.10735632 15.8533793,4.36216092 L15.8893333,4.37114943 L15.8893333,6.64485057 L15.8436092,6.6468046 C12.1634023,6.78710345 8.72549425,8.32726437 6.16416092,10.9827816 C3.60243678,13.6390805 2.19124138,17.1277931 2.19124138,20.806046 C2.19124138,21.7134943 1.48036782,22.4247586 0.573310345,22.4247586 C0.273172414,22.4247586 1.11199938e-12,22.697931 1.11199938e-12,22.9976782 L1.11199938e-12,25.5914483 C1.11199938e-12,25.8915862 0.273172414,26.1647586 0.573310345,26.1647586 L2.19124138,26.1647586 L2.19124138,27.8663218 L0.573310345,27.8663218 C0.273172414,27.8663218 1.11199938e-12,28.1391034 1.11199938e-12,28.4388506 L1.11199938e-12,31.945931 C1.11199938e-12,32.246069 0.273172414,32.5192414 0.573310345,32.5192414 L0.573310345,32.5192414 Z" id="Fill-3"></path>
                        </g>
                    </g>
                </g>
            </g>
        </g>
    </g>
</svg>