<?xml version="1.0" encoding="UTF-8"?>
<svg width="40px" height="40px" viewBox="0 0 40 40" version="1.1" xmlns="http://www.w3.org/2000/svg" xmlns:xlink="http://www.w3.org/1999/xlink">
    <title>989EA385-9D67-43DF-A674-E4DED55F7F5E</title>
    <g id="Membership" stroke="none" stroke-width="1" fill="none" fill-rule="evenodd">
        <g id="Memberships" transform="translate(-1011.000000, -3672.000000)" fill="#F2F2F2" fill-rule="nonzero">
            <g id="Section-4" transform="translate(0.000000, 2795.000000)">
                <g id="Group-20" transform="translate(1011.000000, 877.000000)">
                    <g id="np_family_1453884_F2F2F2">
                        <path d="M31.874625,0 C28.0855625,0 24.999625,3.0859375 24.999625,6.875 C24.999625,9.917 26.9820625,12.514625 29.7261875,13.418125 C27.3726875,14.0553125 25.436625,15.7228125 24.45275,17.9103125 C23.2515625,16.887375 21.696375,16.2501875 19.999625,16.2501875 C16.654875,16.2501875 13.8521875,18.6671875 13.242125,21.836125 C12.377875,21.1354375 11.36225,20.6105625 10.253875,20.3126875 C13.01025,19.4166875 15,16.8019375 15,13.7501875 C15,9.961125 11.9140625,6.8751875 8.125,6.8751875 C4.3359375,6.8751875 1.25,9.961125 1.25,13.7501875 C1.25,16.7995 3.2421875,19.3946875 5.996125,20.2933125 C2.539125,21.228375 0,24.3704375 0,28.1251875 L0,40.0001875 L35,40.0001875 L35,38.7501875 L28.125,38.7501875 L28.125,37.5001875 C28.125,33.7453125 25.5859375,30.6033125 22.128875,29.6683125 C24.88275,28.769875 26.875,26.1746875 26.875,23.1251875 C26.875,21.5358125 26.3183625,20.0905 25.410125,18.9259375 C26.3549375,16.2648125 28.8720625,14.3751875 31.875125,14.3751875 C35.6935,14.3751875 38.750125,17.429375 38.750125,21.2501875 L38.750125,40.0001875 L40.000125,40.0001875 L40.000125,21.2501875 C40.000125,17.4953125 37.4610625,14.3533125 34.004,13.4183125 C36.757875,12.519875 38.750125,9.9246875 38.750125,6.8751875 C38.750125,3.086125 35.6641875,0 31.875125,0 L31.874625,0 Z M31.874625,1.25 C34.9874375,1.25 37.499625,3.7621875 37.499625,6.875 C37.499625,9.9878125 34.9874375,12.5 31.874625,12.5 C28.7618125,12.5 26.249625,9.9878125 26.249625,6.875 C26.249625,3.7621875 28.7618125,1.25 31.874625,1.25 Z M8.124625,8.125 C11.2374375,8.125 13.749625,10.6371875 13.749625,13.75 C13.749625,16.8628125 11.2374375,19.375 8.124625,19.375 C5.0118125,19.375 2.499625,16.8628125 2.499625,13.75 C2.499625,10.6371875 5.0118125,8.125 8.124625,8.125 Z M19.999625,17.5 C23.1124375,17.5 25.624625,20.00975 25.624625,23.125 C25.624625,26.2378125 23.1124375,28.75 19.999625,28.75 C16.8868125,28.75 14.374625,26.2378125 14.374625,23.125 C14.374625,20.00975 16.8868125,17.5 19.999625,17.5 Z M8.124625,21.249875 C10.11925,21.249875 11.8916875,22.077625 13.144125,23.418 C13.2686375,26.3379375 15.207125,28.798875 17.8706875,29.668 C14.4136875,30.6030625 11.8745625,33.745125 11.8745625,37.499875 L11.8745625,38.749875 L1.2495625,38.749875 L1.2495625,28.124875 C1.2495625,24.3065 4.3061875,21.249875 8.1245625,21.249875 L8.124625,21.249875 Z M19.999625,30.625 C23.818,30.625 26.874625,33.681625 26.874625,37.5 L26.874625,38.75 L13.124625,38.75 L13.124625,37.5 C13.124625,33.681625 16.18125,30.625 19.999625,30.625 Z" id="Shape"></path>
                    </g>
                </g>
            </g>
        </g>
    </g>
</svg>