<?xml version="1.0" encoding="UTF-8"?>
<svg width="36px" height="40px" viewBox="0 0 36 40" version="1.1" xmlns="http://www.w3.org/2000/svg" xmlns:xlink="http://www.w3.org/1999/xlink">
    <title>88848160-68ED-444E-A754-B0B49353BE7D</title>
    <g id="Membership" stroke="none" stroke-width="1" fill="none" fill-rule="evenodd">
        <g id="Memberships" transform="translate(-50.000000, -3672.000000)" fill="#F2F2F2" fill-rule="nonzero">
            <g id="Section-4" transform="translate(0.000000, 2795.000000)">
                <g id="Group-18" transform="translate(50.000000, 877.000000)">
                    <g id="np_airplane-seat_713372_F2F2F2">
                        <path d="M27.0311111,39.7777778 L9,39.7777778 C8.85069333,39.7777778 8.71180444,39.7048622 8.62847111,39.5815956 C8.54687556,39.4583333 8.52951111,39.30208 8.58680444,39.1649289 L11.5920044,31.8262622 L11.5902684,31.8262622 C11.6840196,31.5988311 11.9444373,31.4911911 12.1718684,31.5849422 C12.3975618,31.6769556 12.5069396,31.9373733 12.4131884,32.1648089 L9.66665511,38.8888089 L26.3679884,38.8888089 L23.6127884,32.11992 C23.5207751,31.8907556 23.6301498,31.6285867 23.8593173,31.5348533 C24.0902196,31.44284 24.3506507,31.5522147 24.444384,31.7831156 L27.449584,39.1648933 C27.5051396,39.3020444 27.4895142,39.4582978 27.4061809,39.58156 C27.3228476,39.7048222 27.1839587,39.7777778 27.034652,39.7777778 L27.0311111,39.7777778 Z" id="Path"></path>
                        <path d="M22.7431111,21.9342222 L12.5208889,21.9342222 C12.3142933,21.9411671 12.1302622,21.8074844 12.0764444,21.6095689 L11.2934667,18.7693022 C11.2552724,18.6321511 11.2847862,18.4845822 11.3715911,18.3734711 C11.4601333,18.26236 11.5955511,18.1998622 11.7379111,18.2050667 L22.7432444,18.2050667 C23.1807467,18.1842329 23.6078222,18.3456933 23.9237778,18.6512444 C24.2380133,18.9568 24.4116444,19.3786667 24.4046667,19.8179111 C24.4098751,20.7068 23.7727111,21.9342222 22.7432,21.9342222 L22.7431111,21.9342222 Z M12.8488889,21.0453333 L22.7431111,21.0453333 C23.1337378,21.0453333 23.5156889,20.3474222 23.5156889,19.8283111 L23.5156889,19.8265751 C23.5226333,19.6251884 23.4410356,19.430744 23.2917289,19.2935973 C23.14416,19.1547084 22.9427689,19.0887351 22.7431067,19.111304 L12.3159956,19.111304 L12.8488889,21.0453333 Z" id="Shape"></path>
                        <path d="M26.3871111,31.2622222 L10.0764444,31.2622222 C9.15631111,31.2240276 8.33684444,30.6719556 7.95493333,29.8351556 C7.69451556,29.4653644 7.49835556,29.0539111 7.37333333,28.6181333 L0.501777778,6.25368889 C0.25004,5.4568 0.319484444,4.59395556 0.69796,3.84915556 C1.07122222,3.11653333 1.72747111,2.56791111 2.51564889,2.32831111 C3.31773778,2.09567111 4.18231556,2.21893778 4.88889333,2.66685333 C5.61284889,3.11476444 6.14929333,3.80920889 6.39929333,4.62169778 L13.1335156,26.72392 L26.3868489,26.72392 C27.0048933,26.6961422 27.6090711,26.9235733 28.0569822,27.3524089 C28.5048933,27.7812267 28.75836,28.3732533 28.75836,28.9930311 C28.75836,29.6128089 28.5048889,30.2065867 28.0569822,30.6336533 C27.6090711,31.0624711 27.0048933,31.28992 26.3868489,31.2621422 L26.3871111,31.2622222 Z M3.33866667,3.11088444 C3.14769333,3.11088444 2.95845778,3.13888889 2.77791111,3.19618222 C2.22062222,3.36458667 1.7536,3.75173778 1.48973333,4.27084889 C1.21542667,4.80209333 1.15987111,5.42013778 1.33348444,5.99133778 L8.22770667,28.3557822 C8.31798222,28.6995333 8.46728889,29.0241822 8.67215111,29.3158711 C8.69472044,29.3436489 8.71381778,29.3748978 8.72944444,29.4096222 C8.96034667,29.9530444 9.47251111,30.3262889 10.0627778,30.3783778 L26.3734444,30.3783778 C26.7536533,30.3992116 27.1251778,30.2637956 27.4012222,30.00164 C27.6772622,29.7412222 27.8335156,29.3783956 27.8335156,28.9981733 C27.8335156,28.6179644 27.6772667,28.2533733 27.4012222,27.9929733 C27.1251778,27.7325733 26.7536667,27.5954044 26.3734444,27.6179733 L12.8041111,27.6179733 C12.6027244,27.6266538 12.4186933,27.4964444 12.3596667,27.302 L5.573,4.88866667 C5.38897333,4.27755556 4.98793333,3.75324444 4.44451111,3.41817778 C4.11117778,3.21679111 3.72748889,3.11088444 3.3386,3.11088444 L3.33866667,3.11088444 Z" id="Shape"></path>
                        <path d="M29.4217778,16.8351111 L29.35928,16.8351111 C26.1683022,16.8351111 23.5815022,14.2483111 23.5815022,11.0573333 L23.5815022,6 C23.5815022,2.80902222 26.1683022,0.222222222 29.35928,0.222222222 L29.4217778,0.222222222 C32.6127556,0.222222222 35.1995556,2.80902222 35.1995556,6 L35.1995556,11.0573333 C35.1995556,12.5903111 34.5919111,14.0590667 33.5068444,15.1441333 C32.4235111,16.2274667 30.9547556,16.8351111 29.4217778,16.8351111 L29.4217778,16.8351111 Z M29.35928,1.11111111 C26.6596356,1.11111111 24.4703911,3.30035556 24.4703911,6 L24.4703911,11.0573333 C24.4703911,13.7587111 26.6596356,15.9462222 29.35928,15.9462222 L29.4217778,15.9462222 C32.1214222,15.9462222 34.3106667,13.7587111 34.3106667,11.0573333 L34.3106667,6 C34.3106667,3.30035556 32.1214222,1.11111111 29.4217778,1.11111111 L29.35928,1.11111111 Z" id="Shape"></path>
                        <path d="M34.7551111,7.33866667 L24.0257778,7.33866667 C23.7809867,7.33866667 23.5813333,7.13901333 23.5813333,6.89422222 C23.5813333,6.64769333 23.7809867,6.44977778 24.0257778,6.44977778 L34.7551111,6.44977778 C35.00164,6.44977778 35.1995556,6.64769333 35.1995556,6.89422222 C35.1995556,7.13901333 35.00164,7.33866667 34.7551111,7.33866667 L34.7551111,7.33866667 Z" id="Path"></path>
                    </g>
                </g>
            </g>
        </g>
    </g>
</svg>