<?xml version="1.0" encoding="UTF-8"?>
<svg width="47px" height="40px" viewBox="0 0 47 40" version="1.1" xmlns="http://www.w3.org/2000/svg" xmlns:xlink="http://www.w3.org/1999/xlink">
    <title>4ECAEB98-2EA7-4C15-9A81-6FD7C89BE156</title>
    <g id="Membership" stroke="none" stroke-width="1" fill="none" fill-rule="evenodd" stroke-linecap="round" stroke-linejoin="round">
        <g id="Memberships" transform="translate(-529.000000, -3474.000000)" stroke="#F2F2F2" stroke-width="1.125">
            <g id="Section-4" transform="translate(0.000000, 2795.000000)">
                <g id="Group-21" transform="translate(530.000000, 679.000000)">
                    <g id="np_tickets_683697_F2F2F2" transform="translate(0.000000, 1.000000)">
                        <path d="M6.6403125,18.0174375 L9.59124375,20.9705625 L6.6403125,18.0174375 Z" id="Path"></path>
                        <path d="M11.8035,23.1834375 L14.7544312,26.1343688 L11.8035,23.1834375 Z" id="Path"></path>
                        <path d="M16.96725,28.348875 L19.9181812,31.2976125 L16.96725,28.348875 Z" id="Path"></path>
                        <path d="M9.5911875,34.2489375 C11.2215375,32.6207813 11.2215375,29.979675 9.5911875,28.3471875 C7.96303125,26.7190312 5.319675,26.7190312 3.6894375,28.3471875 L0.000225,24.6601688 L23.6055375,1.05260625 L27.29475,4.74181875 C25.6665937,6.37216875 25.6665937,9.01108125 27.2969471,10.6435687 C28.9251034,12.271725 31.5684596,12.271725 33.1964471,10.6435687 L36.8856596,14.3327812 L13.2780971,37.9358437 L9.5911875,34.2489375 Z" id="Path"></path>
                        <path d="M41.3105625,9.9028125 C39.6824062,11.5331625 37.03905,11.5331625 35.4110625,9.9028125 C33.7807125,8.2724625 33.7807125,5.6313 35.4088654,4.0010625 L31.7196529,0.31185 L27.2899654,4.7415375 C25.6640029,6.36969375 25.6640029,9.0108 27.2943602,10.6387875 C28.9225164,12.2669437 31.5658727,12.2669437 33.1938602,10.6387875 L36.8830727,14.328 L17.7006977,33.508125 L21.3899102,37.1973375 L44.9997227,13.592025 L41.3105625,9.9028125 Z" id="Path"></path>
                    </g>
                </g>
            </g>
        </g>
    </g>
</svg>