<?xml version="1.0" encoding="UTF-8"?>
<svg width="114px" height="30px" viewBox="0 0 114 30" version="1.1" xmlns="http://www.w3.org/2000/svg" xmlns:xlink="http://www.w3.org/1999/xlink">
    <title>7C22C29A-F4EC-4539-B411-A701E8E219B4</title>
    <g id="Handover" stroke="none" stroke-width="1" fill="none" fill-rule="evenodd" opacity="0.2">
        <g id="Homepage" transform="translate(-1081.000000, -5197.000000)" fill="#0A253E" fill-rule="nonzero">
            <g id="Section-5" transform="translate(0.000000, 4946.000000)">
                <g id="Logos" transform="translate(208.000000, 250.000000)">
                    <g id="Forbes" transform="translate(873.000000, 1.000000)">
                        <path d="M54.7599278,8 C53.8086643,8 53.2870036,8.09156977 52.5198556,8.45784884 C51.1083032,9.09883721 50.0649819,10.1366279 49.1444043,11.815407 L48.8375451,12.3343023 L48.868231,11.3880814 C48.898917,10.869186 48.9296029,9.92296512 48.9602888,9.25145349 L48.9909747,8.06104651 L48.7761733,8.06104651 C48.5306859,8.06104651 40.4296029,9.67877907 40.1841155,9.77034884 C40.0306859,9.83139535 40,9.89244186 40,10.2892442 C40,10.6860465 40.0306859,10.747093 40.1841155,10.7776163 C40.2761733,10.8081395 40.6444043,10.869186 41.0126354,10.9302326 C41.7184116,11.0523256 41.933213,11.1744186 42.2400722,11.5712209 C42.7924188,12.2732558 42.8844765,13.5552326 42.8844765,18.8968023 C42.8844765,23.2616279 42.7924188,25.4593023 42.5776173,26.130814 C42.33213,26.9549419 41.8718412,27.3822674 41.0740072,27.5348837 C40.8285199,27.5959302 40.4909747,27.6569767 40.3375451,27.6875 L40.0613718,27.7485465 L40.0306859,28.2979651 C40,28.6947674 40.0306859,28.877907 40.1227437,28.9389535 C40.1841155,28.9694767 42.9458484,29 46.2599278,29 L52.3050542,28.9694767 L52.3357401,28.3284884 C52.3357401,27.9927326 52.3357401,27.6875 52.3050542,27.6875 C51.8447653,27.6875 50.4025271,27.5043605 50.1570397,27.3822674 C49.4819495,27.1075581 49.1444043,26.497093 48.9909747,25.2456395 C48.8375451,23.8110465 48.7148014,20.1787791 48.7761733,17.2485465 C48.8375451,14.2572674 48.8375451,14.2572674 49.0216606,14.0436047 C49.4512635,13.5857558 50.5559567,13.2194767 51.5685921,13.2194767 C52.366426,13.2194767 53.1949458,13.4331395 54.0541516,13.8299419 C54.4837545,14.0436047 54.8519856,14.1656977 54.9133574,14.1656977 C55.0361011,14.1351744 57,8.91569767 57,8.67151163 C57,8.36627907 55.8646209,8 54.7599278,8 Z" id="XMLID_33_"></path>
                        <path d="M39.945298,17.2524351 C39.5178443,13.5588497 37.9912237,10.8669146 35.4570335,9.33313757 C32.6480516,7.64285272 28.4040464,7.548948 25.3813376,9.11402657 C23.1830039,10.2408831 21.412124,12.4006916 20.6182813,14.9048173 C19.7939062,17.4715461 19.7939062,20.8521158 20.6182813,23.4501462 C21.1373323,25.1404311 21.8395778,26.3611923 22.9387446,27.4567473 C24.2516383,28.8027149 25.9614534,29.6478573 27.9460602,29.9295715 C28.6483057,30.0234762 30.8771717,30.0234762 31.6099496,29.9295715 C31.9458061,29.8669683 32.5564544,29.741762 32.9228433,29.6478573 C36.4951355,28.5836039 38.9377284,25.7664625 39.7621036,21.7598614 C39.9758305,20.7582111 40.0674277,18.3792917 39.945298,17.2524351 Z M30.9077041,28.3331913 C28.6788381,29.0218259 27.0911527,26.8307159 26.4805044,22.2919881 C26.2667775,20.8208142 26.2973099,16.8142131 26.4805044,15.1552298 C26.9079582,11.492946 28.007125,9.64615328 29.7474725,9.64615328 C30.5413152,9.64615328 30.968769,9.83396271 31.5794172,10.4599941 C33.044973,11.9624696 33.716686,14.8422141 33.716686,19.3496404 C33.716686,22.9493211 33.3502971,25.2030342 32.5869868,26.7368112 C32.1900654,27.4567473 31.48782,28.1453819 30.9077041,28.3331913 Z" id="XMLID_36_"></path>
                        <path d="M10.6666667,2.29396045 L13.2121212,2.29396045 C16.1212121,2.29396045 16.6060606,2.35595938 17.6363636,2.88295029 C19.1212121,3.62693747 20.2121212,5.11491181 21.1818182,7.71886692 C21.5757576,8.77284874 21.5757576,8.77284874 22.4242424,8.49385355 L23,8.30785676 L22.9393939,4.4949225 C22.9090909,2.38695885 22.8484848,0.526990914 22.8484848,0.371993586 L22.7878788,0.0309994655 L11.6666667,0 C5.54545455,0 0.424242424,0 0.272727273,0.0309994655 L0,0.0929983966 L0.0303030303,0.774986638 L0.0606060606,1.45697488 L0.909090909,1.54997328 C2,1.67397114 2.66666667,2.01496526 3.06060606,2.57295564 C3.93939394,3.87493319 4.09090909,5.67290219 4.09090909,14.1357563 C4.09090909,23.1566007 3.90909091,25.3575628 3.06060606,26.4735436 C2.63636364,27.0625334 2.27272727,27.2485302 1.27272727,27.434527 C-0.0303030303,27.6825227 0.0303030303,27.6515232 0.0303030303,28.3335115 C0.0303030303,28.7055051 0.0606060606,28.9225013 0.121212121,28.9535008 C0.272727273,29.0154997 14.4848485,29.0154997 14.6363636,28.9535008 C14.8181818,28.8915019 14.8181818,27.8065206 14.6363636,27.7135222 C14.5454545,27.6825227 14.0909091,27.5895243 13.5757576,27.4965259 C13.0606061,27.4035275 12.5151515,27.2795297 12.3333333,27.2175307 C11.3939394,26.8145377 10.8787879,25.6675575 10.6969697,23.5905933 C10.5454545,22.1026189 10.4545455,19.3436665 10.4545455,17.3287012 L10.4545455,15.4687333 L11.3333333,15.4997328 C13.1818182,15.5617317 14.1212121,15.6547301 14.5151515,15.8407269 C15.3636364,16.2127205 16.030303,17.2667023 16.3636364,18.7546766 L16.5454545,19.5296633 L17.2121212,19.5606627 L17.8787879,19.5916622 L17.8787879,9.67183324 L17.2121212,9.70283271 L16.5454545,9.73383218 L16.3636364,10.5088188 C16,12.0277926 15.3939394,12.9577766 14.4848485,13.3917691 C14.1212121,13.5777659 13.8484848,13.6087654 13,13.6707643 C12.4242424,13.7017638 11.6060606,13.7327632 11.2121212,13.7327632 L10.4545455,13.7327632 L10.4545455,11.2838055 C10.4545455,8.83484768 10.5757576,3.595938 10.6666667,2.7899519 L10.6666667,2.29396045 Z" id="XMLID_37_"></path>
                        <path d="M113.400394,20.1660671 C112.706114,18.7601037 111.380671,17.8227948 108.666667,16.6980241 C106.457594,15.7919588 105.321499,15.1358425 104.658777,14.417239 C104.09073,13.82361 103.932939,13.3237119 103.996055,12.4488903 C104.059172,11.6365559 104.248521,11.1366578 104.78501,10.5742724 C105.447732,9.85566888 106.394477,9.60571983 107.499014,9.85566888 C109.29783,10.2305925 110.465483,11.4803377 111.475345,14.1048027 C111.822485,15.0421116 111.885602,15.0733553 112.516765,14.8234062 L112.927022,14.6671881 L112.927022,13.573661 C112.927022,12.980032 112.895464,11.7302867 112.863905,10.7929778 L112.800789,9.10582174 L112.485207,8.98084721 C110.812623,8.29348733 107.656805,7.8560765 105.605523,8.04353828 C103.270217,8.2622437 101.534517,8.98084721 100.209073,10.355567 C98.8836292,11.6990431 98.2840237,13.2924683 98.4102564,15.1670862 C98.504931,16.7292677 98.9467456,17.8227948 99.9250493,18.822591 C100.808679,19.7286563 101.566075,20.1660671 103.74359,21.0096452 C107.21499,22.3531213 108.161736,23.1654557 108.130178,24.8213682 C108.130178,26.2273316 107.372781,27.2583714 106.015779,27.7270258 C105.510848,27.883244 104.280079,27.883244 103.617357,27.7270258 C101.881657,27.289615 100.556213,25.7899207 99.4201183,23.0404812 L99.1360947,22.3218777 L98.7889546,22.3531213 C98.5996055,22.3531213 98.34714,22.4156086 98.2209073,22.4780958 L98,22.6030703 L98.0315582,23.821572 C98.0315582,24.4776882 98.0631164,25.8836516 98.0946746,26.9146914 L98.1577909,28.8205529 L98.5364892,28.9767711 C99.3254438,29.320451 101.723866,29.8203491 103.207101,29.9765673 C103.39645,30.0078109 104.406312,30.0078109 105.47929,29.9765673 C107.309665,29.9453236 107.467456,29.9453236 108.382643,29.6953746 C111.128205,28.9767711 112.895464,27.4770768 113.684418,25.1962917 C113.936884,24.4776882 113.968442,24.2902264 114,23.227943 C113.968442,21.7907359 113.842209,21.0721324 113.400394,20.1660671 Z" id="XMLID_38_"></path>
                        <path d="M92.6091473,8.81199216 C90.3985801,7.65528793 86.9767431,7.74907476 84.4936402,8.99956581 C82.1316643,10.1875323 80.4964502,12.188318 79.5879979,15.0019229 C79.10349,16.4712499 78.9520813,17.6279541 79.0126448,19.534953 C79.0429265,20.7229195 79.10349,21.348165 79.224617,21.910886 C80.163351,26.2250801 83.0098348,29.1324718 87.0070249,29.8827665 C87.8851954,30.0390778 89.8837904,30.0390778 90.761961,29.8827665 C92.0337942,29.6639305 93.4873178,29.0699473 94.4260519,28.4134395 C95.5464763,27.6318826 96.6971826,26.4439161 96.6971826,26.0687687 C96.6971826,25.8499328 96.3035199,25.3184741 96.1521112,25.3184741 C96.0915477,25.3184741 95.7584485,25.4747855 95.4556311,25.6936214 C94.3654884,26.4439161 93.3056274,26.7252765 91.821822,26.7252765 C89.7929452,26.7252765 88.521112,26.1938178 87.2189971,24.84954 C86.643644,24.2555567 86.40139,23.9429339 86.1288543,23.3489507 C85.4929377,22.0671974 85.1295568,20.5666081 85.0689933,18.8784452 L85.0387116,18.1594128 L91.0042149,18.1281505 L96.9697183,18.0968883 L97,17.6904787 C97,17.4716427 97,16.8776595 96.9394365,16.3462008 C96.5760556,12.6885144 95.0922502,10.1250078 92.6091473,8.81199216 Z M86.6133622,16.4087253 L85.0992751,16.4399876 L85.0992751,16.0961026 C85.0992751,15.9085289 85.1598386,15.4083325 85.220402,15.0019229 C85.7351917,11.6568593 86.9464614,9.65607362 88.4605485,9.65607362 C89.8535087,9.65607362 90.7013975,11.625597 90.8830879,15.2520211 L90.9436514,16.2836762 L89.5506913,16.3462008 C88.7633659,16.3462008 87.4309693,16.377463 86.6133622,16.4087253 Z" id="XMLID_42_"></path>
                        <path d="M70.5958904,8.59762141 C70.1113795,8.50450637 69.6874325,8.47346803 68.7789746,8.50450637 C67.3860058,8.56658306 66.4472659,8.75281313 65.3873984,9.24942664 C65.0542972,9.40461836 64.7514779,9.55981008 64.7211959,9.55981008 C64.690914,9.55981008 64.690914,7.41816432 64.7211959,4.77990504 C64.7514779,1.05530371 64.7514779,0 64.6606321,0 C64.3880947,0 56.1816916,1.61399391 56.0908458,1.6760706 C56.0302819,1.73814729 56,1.92437735 56,2.17268411 C56.0302819,2.63825928 55.9697181,2.60722093 56.9690218,2.82448934 C57.2718411,2.88656603 57.6352242,3.04175775 57.756352,3.13487279 C58.0894532,3.38317954 58.3619906,3.9108314 58.5739641,4.65575166 C58.7253737,5.24548021 58.7556557,5.68001703 58.8162195,9.71500181 C58.8767834,13.8431016 58.8767834,18.0953548 58.7556557,25.8549409 L58.6950918,29.0829287 L59.2704485,29.2070821 C60.1183425,29.3933122 62.5711789,29.827849 63.3585091,29.920964 C64.5395043,30.0451174 67.2648781,30.0140791 68.143054,29.8899257 C71.9282953,29.3001971 74.7747968,27.0654363 76.1072017,23.6201801 C76.4705849,22.7200681 76.8036861,21.2923043 76.9248138,20.2680389 C77.0762235,19.0575435 76.9853777,16.6055143 76.7734042,15.6122872 C75.986074,11.8566476 73.6846473,9.24942664 70.5958904,8.59762141 Z M64.8423236,28.0586634 C64.7514779,27.7793183 64.6303501,18.0953548 64.6606321,14.2466001 L64.690914,11.2358807 L65.2359887,11.080689 C65.5993719,10.9875739 66.0233189,10.9254972 66.5078298,10.9254972 C67.2043142,10.9254972 67.2648781,10.9565356 67.8402347,11.2358807 C69.2332035,11.9497626 70.1719434,13.6879099 70.6261723,16.3261692 C70.777582,17.3193962 70.8078639,19.9886938 70.6564543,21.1681509 C70.2930711,24.0547169 69.3846132,26.3825928 68.143054,27.4999732 C67.6585432,27.93451 67.2043142,28.1828167 66.6289575,28.3069701 C66.2050105,28.4000852 66.0838828,28.4000852 65.2965526,28.3380085 C64.9937333,28.2759318 64.9331694,28.2448934 64.8423236,28.0586634 Z" id="XMLID_48_"></path>
                    </g>
                </g>
            </g>
        </g>
    </g>
</svg>