<?xml version="1.0" encoding="UTF-8"?>
<svg width="152px" height="29px" viewBox="0 0 152 29" version="1.1" xmlns="http://www.w3.org/2000/svg" xmlns:xlink="http://www.w3.org/1999/xlink">
    <title>5DCD95D0-FB55-43C6-8EBA-0ADDC41181E0</title>
    <g id="Handover" stroke="none" stroke-width="1" fill="none" fill-rule="evenodd">
        <g id="Homepage" transform="translate(-208.000000, -5198.000000)" fill="#000000" fill-rule="nonzero">
            <g id="Section-5" transform="translate(0.000000, 4946.000000)">
                <g id="Logos" transform="translate(208.000000, 250.000000)">
                    <g id="Robb-Report-–-The-Best-Luxury-Cars,-Jets,-Yachts,-Travel,-Watches-0" transform="translate(0.000000, 2.000000)">
                        <path d="M6.38680058,11.0729731 L6.38680058,1.7819925 L8.73273285,1.7819925 C12.8322495,1.7819925 14.1811605,3.34709775 14.1811605,6.16077011 C14.1811605,9.16202063 13.2721118,11.0729731 9.07875786,11.0729731 L6.38680058,11.0729731 Z M6.38680058,11.9522457 L8.92040743,11.9522457 C12.3923872,11.9522457 13.4597864,12.6380784 13.7706224,15.7389798 L14.0228101,18.429554 C14.304322,21.2783972 14.9905072,22.3393862 18.6560263,22.3393862 C19.2835632,22.3393862 20.157423,22.2455971 20.7556357,22.0873281 L20.7556357,21.4014954 C18.2806772,21.3370154 17.6590051,20.9032409 17.248467,18.5233431 L16.9376309,16.3955033 C16.4977686,13.581831 15.7470703,11.8291476 11.5537164,11.5184712 L11.5537164,11.4246822 C15.8409076,10.6743695 17.4713305,8.66962797 17.4713305,6.07284285 C17.4713305,3.25917049 15.2778839,0.908581701 8.95559641,0.908581701 L0,0.908581701 L0,1.59441434 C2.72128142,1.68820342 3.41333144,2.25093789 3.41333144,3.41157774 L3.41333144,19.6136411 C3.41333144,20.7684191 2.72714626,21.3018445 0,21.3956336 L0,22.1166371 L9.70042991,22.1166371 L9.70042991,21.3956336 C6.85012221,21.3018445 6.38093575,20.8328991 6.38093575,19.6136411 L6.38680058,11.9522457 Z M26.5735477,22.3686953 C30.5147139,22.3686953 33.5820203,19.2384848 33.5820203,14.8597072 C33.5820203,10.5102386 30.6730643,7.50898812 26.5735477,7.50898812 C22.5971925,7.50898812 19.5005619,10.6391986 19.5005619,14.9828053 C19.5005619,19.3674448 22.4095179,22.3686953 26.5735477,22.3686953 Z M26.6967091,21.5832118 C24.1924265,21.5832118 22.4740311,19.6722593 22.4740311,14.9183253 C22.4740311,10.1350823 23.9461036,8.25343893 26.4151973,8.25343893 C28.91948,8.25343893 30.6378924,10.1292205 30.6378924,14.9183253 C30.6437402,19.6781211 29.1364787,21.5832118 26.6967091,21.5832118 L26.6967091,21.5832118 Z M35.0247687,22.4917935 L35.5584683,22.4917935 L36.8721903,20.8328991 C38.4029111,21.929059 39.9394968,22.3628335 41.5992438,22.3628335 C45.6987605,22.3628335 48.2323673,18.7050594 48.2323673,14.5138599 C48.2323673,10.4809296 46.0389207,7.50898812 42.3499422,7.50898812 C40.4086832,7.50898812 39.030448,8.25930075 37.7519149,9.54303877 L37.7519149,0 L32.5849991,0.123098166 L32.5849991,0.779621717 C34.6494195,0.844101709 35.118606,1.3130471 35.118606,2.34472697 L35.118606,19.7367393 L35.0247687,22.4917935 Z M41.3470561,21.5832118 C39.8163353,21.5832118 38.4029111,20.709801 37.7460501,18.8633285 L37.7460501,10.3871405 C38.684423,9.4199406 39.7518222,8.82203522 41.2180299,8.82203522 C43.6929884,8.82203522 45.3175465,11.2605513 45.3175465,14.672129 C45.3175465,18.9278085 44.0683376,21.5832118 41.3470561,21.5832118 Z M49.5460894,22.4917935 L50.079789,22.4917935 L51.393511,20.8328991 C52.9242318,21.929059 54.4608175,22.3628335 56.1205646,22.3628335 C60.2200812,22.3628335 62.753688,18.7050594 62.753688,14.5138599 C62.753688,10.4809296 60.5602414,7.50898812 56.8712629,7.50898812 C54.9300039,7.50898812 53.5517687,8.25930075 52.2732356,9.54303877 L52.2732356,0 L47.1063198,0.123098166 L47.1063198,0.779621717 C49.1707402,0.844101709 49.6399267,1.3130471 49.6399267,2.34472697 L49.6399267,19.7367393 L49.5460894,22.4917935 L49.5460894,22.4917935 Z M55.8683768,21.5832118 C54.337656,21.5832118 52.9242318,20.709801 52.2673708,18.8633285 L52.2673708,10.3871405 C53.2057437,9.4199406 54.2731429,8.82203522 55.7393506,8.82203522 C58.2143091,8.82203522 59.8388876,11.2605513 59.8388876,14.672129 C59.844732,18.9278085 58.5896583,21.5832118 55.8683768,21.5832118 Z M72.9233044,11.0729731 L72.9233044,1.7819925 L75.2692366,1.7819925 C79.3687533,1.7819925 80.7176643,3.34709775 80.7176643,6.16077011 C80.7176643,9.16202063 79.8086156,11.0729731 75.6152617,11.0729731 L72.9233044,11.0729731 Z M72.9233044,11.9522457 L75.4569112,11.9522457 C78.928891,11.9522457 79.9962902,12.6380784 80.3071262,15.7389798 L80.5593139,18.429554 C80.8408258,21.2783972 81.527011,22.3393862 85.1925301,22.3393862 C85.820067,22.3393862 86.6939268,22.2455971 87.2921395,22.0873281 L87.2921395,21.4014954 C84.817181,21.3370154 84.1955089,20.9032409 83.7849708,18.5233431 L83.4741347,16.3955033 C83.0342724,13.581831 82.2835741,11.8291476 78.0902202,11.5184712 L78.0902202,11.4246822 C82.3774114,10.6743695 84.0078343,8.66962797 84.0078343,6.07284285 C84.0078343,3.25917049 81.8143877,0.908581701 75.4921002,0.908581701 L66.5423686,0.908581701 L66.5423686,1.59441434 C69.2636501,1.68820342 69.9557001,2.25093789 69.9557001,3.41157774 L69.9557001,19.6136411 C69.9557001,20.7684191 69.2695149,21.3018445 66.5423686,21.3956336 L66.5423686,22.1166371 L76.2427985,22.1166371 L76.2427985,21.3956336 C73.3924908,21.3018445 72.9233044,20.8328991 72.9233044,19.6136411 L72.9233044,11.9522457 L72.9233044,11.9522457 Z M92.9575659,22.3686953 C96.1187096,22.3686953 97.7432677,20.5867028 98.9045042,18.6464412 L98.4353177,18.2419758 C97.1509198,19.8363902 95.8665219,20.93255 93.9897761,20.93255 C90.7641192,20.93255 89.075048,18.2419758 89.075048,14.7717799 L89.075048,14.2090454 L98.7461538,14.2090454 C98.9983415,10.7681586 97.0570825,7.51484994 92.9575659,7.51484994 C89.110237,7.51484994 86.1954162,10.7974677 86.1954162,15.0824562 C86.1954162,19.2091757 88.729023,22.3686953 92.9575659,22.3686953 L92.9575659,22.3686953 Z M92.7347023,8.25930075 C95.1451477,8.25930075 96.1480338,10.3871405 95.8665219,13.388391 L89.1043722,13.4821801 C89.3565599,9.85371509 90.7641192,8.25930075 92.7347023,8.25930075 L92.7347023,8.25930075 Z M98.8106669,28.125 L106.698864,28.125 L106.698864,27.4684764 C104.382256,27.4391674 103.725395,27.2164183 103.725395,26.2785275 L103.725395,21.3018445 C104.880767,21.929059 106.012679,22.3335244 107.607913,22.3335244 C111.642916,22.3335244 114.088551,18.9219466 114.088551,14.607649 C114.088551,10.4809296 112.053455,7.50898812 108.423124,7.50898812 C106.481865,7.50898812 105.009793,8.44687891 103.666747,9.75992601 L103.666747,7.69656628 L98.8165317,7.81966444 L98.8165317,8.47618799 C100.634629,8.50549708 101.103816,9.10340246 101.103816,10.0412932 L101.103816,26.2785275 C101.103816,27.2164183 100.634629,27.4333055 98.8165317,27.4684764 L98.8165317,28.125 L98.8106669,28.125 L98.8106669,28.125 Z M107.226699,21.5539027 C105.473115,21.5539027 104.317743,20.774281 103.71953,18.8633285 L103.71953,10.6040277 C104.628579,9.60165694 105.725302,8.82203522 107.256023,8.82203522 C109.730982,8.82203522 111.167882,11.3250313 111.167882,14.7659181 C111.17373,19.1446957 109.60782,21.5539027 107.226699,21.5539027 Z M122.316908,22.3686953 C126.258074,22.3686953 129.325381,19.2384848 129.325381,14.8597072 C129.325381,10.5102386 126.416425,7.50898812 122.316908,7.50898812 C118.340553,7.50898812 115.243914,10.6391986 115.243914,14.9828053 C115.238058,19.3674448 118.152878,22.3686953 122.316908,22.3686953 Z M122.44007,21.5890736 C119.935787,21.5890736 118.217392,19.6781211 118.217392,14.9241872 C118.217392,10.1409441 119.689464,8.25930075 122.158558,8.25930075 C124.66284,8.25930075 126.381236,10.1350823 126.381236,14.9241872 C126.381236,19.6781211 124.879839,21.5890736 122.44007,21.5890736 Z M129.389894,22.1166371 L136.932066,22.1166371 L136.932066,21.4308045 C134.89697,21.4014954 134.304622,21.1787464 134.304622,20.2760265 L134.304622,11.4246822 C135.119833,10.1116351 136.058206,9.17374427 137.465766,9.07995519 C137.401253,9.29684243 137.342604,9.54890058 137.342604,9.76578783 C137.342604,10.8267768 138.122627,11.4246822 139.061,11.4246822 C140.028697,11.4246822 140.691423,10.6743695 140.691423,9.67199875 C140.691423,8.6110098 140.005237,7.57346811 138.404139,7.57346811 C136.80304,7.57346811 135.366156,8.79272614 134.240109,10.5161005 L134.240109,7.7024281 L129.389894,7.82552626 L129.389894,8.48204981 C131.202127,8.5113589 131.677178,9.10926428 131.677178,10.0471551 L131.677178,20.2760265 C131.677178,21.1846082 131.207991,21.4014954 129.389894,21.4308045 L129.389894,22.1166371 L129.389894,22.1166371 Z M146.949197,22.4331753 C148.825943,22.4331753 150.081016,21.4659754 151.171875,19.4612338 L150.638175,19.0860775 C149.822964,20.3346446 148.978428,20.99703 148.104569,20.99703 C146.820171,20.99703 146.227823,20.2467174 146.227823,18.429554 L146.227823,8.94513339 L150.732013,8.94513339 L150.732013,7.81966444 L146.227823,7.81966444 L146.227823,2.62609421 L143.629703,3.75156315 L143.629703,7.72587536 L140.779395,8.38239892 L140.779395,8.98030429 L143.594514,8.98030429 L143.594514,18.4588631 C143.594514,21.0849573 144.691237,22.4331753 146.949197,22.4331753 L146.949197,22.4331753 Z" id="Robb-Report"></path>
                    </g>
                </g>
            </g>
        </g>
    </g>
</svg>