<?xml version="1.0" encoding="UTF-8"?>
<svg width="57px" height="32px" viewBox="0 0 57 32" version="1.1" xmlns="http://www.w3.org/2000/svg" xmlns:xlink="http://www.w3.org/1999/xlink">
    <title>17830355-CE4C-4F35-809B-5C96042E2AEC</title>
    <defs>
        <polygon id="path-1" points="0 0.167545455 0 31.8630303 26.6910526 31.8630303 26.6910526 0.169015152 0 0.169015152"></polygon>
        <polygon id="path-3" points="7.25266667 31.8630303 14.19 31.8630303 14.19 0.169015152 0.315333333 0.169015152 0.315333333 31.8630303"></polygon>
    </defs>
    <g id="Handover" stroke="none" stroke-width="1" fill="none" fill-rule="evenodd" opacity="0.2">
        <g id="Homepage" transform="translate(-904.000000, -5196.000000)">
            <g id="Section-5" transform="translate(0.000000, 4946.000000)">
                <g id="Logos" transform="translate(208.000000, 250.000000)">
                    <g id="WSJ" transform="translate(696.000000, 0.000000)">
                        <g id="Group">
                            <g id="Clipped">
                                <mask id="mask-2" fill="white">
                                    <use xlink:href="#path-1"></use>
                                </mask>
                                <g id="a"></g>
                                <path d="M2.22061404,4.37675758 C1.63087719,1.67545455 1.49545614,1.21984848 0.633421053,0.992045455 L0,0.808333333 L0,0.167545455 L8.02042105,0.167545455 L8.02042105,0.808333333 L7.33894737,0.945015152 C5.89154386,1.26540909 6.02842105,2.72922727 6.43614035,4.69568182 L10.0153333,22.6259848 L12.6436667,8.35522727 L11.6913509,3.46113636 C11.3287719,1.72395455 11.1918947,1.17575758 10.2847193,0.945015152 L9.69789474,0.808333333 L9.69789474,0.167545455 L17.990614,0.167545455 L17.990614,0.808333333 L16.9931579,0.992045455 C15.4977018,1.26540909 15.7263158,2.91293939 16.0874386,4.69568182 L19.5312105,22.6259848 L22.9298421,5.65833333 C23.5647193,2.1354697 23.2472807,1.26393939 21.8872456,0.990575758 L20.9392982,0.808333333 L20.9392982,0.167545455 L26.6939649,0.167545455 L26.6939649,0.808333333 L26.0590877,1.03760606 C25.1533684,1.3565303 24.9262105,2.22806061 24.2927895,5.24534848 L18.7652807,31.8615606 L17.585807,31.8615606 L13.3236842,11.1006212 L9.47073684,31.8674394 L7.9752807,31.8674394 L2.22061404,4.37528788 L2.22061404,4.37675758 Z" id="Path" fill="#0A253E" fill-rule="nonzero" mask="url(#mask-2)"></path>
                            </g>
                        </g>
                        <path d="M34.0203344,31.6666667 C31.4001458,31.6666667 30.4967326,29.8504687 29.6368924,29.8504687 C29.1401604,29.8504687 28.5533776,29.9877055 28.1002186,31.4856309 L27.5584612,31.4856309 L27.5584612,21.1271707 L28.2367472,21.1271707 C28.7799571,26.990395 30.9498916,30.6709697 33.9782139,30.6709697 C36.0116197,30.6709697 37.4132173,28.8080529 37.4132173,25.4442908 C37.4132173,18.3576149 27.3333333,15.3121254 27.3333333,7.4531274 C27.3318816,3.22652528 29.4567907,0 33.2984754,0 C35.7850402,0 36.2817722,1.63516213 37.3217141,1.63516213 C37.9084969,1.63516213 38.3151781,1.18257261 38.5417576,0.182495774 L39.0849674,0.182495774 L39.0849674,10.5409559 L38.4066813,10.5409559 C37.8634715,5.31427693 36.5083517,1.00007684 33.2534499,1.00007684 C30.9934646,1.00007684 30.5867834,3.27178423 30.5867834,4.81642846 C30.5867834,11.5848317 40.6666667,13.9017981 40.6666667,23.3521592 C40.6666667,28.1700476 38.0450256,31.6666667 34.0217869,31.6666667" id="Path" fill="#0A253E" fill-rule="nonzero"></path>
                        <g id="Group" transform="translate(42.000000, 0.000000)">
                            <g id="Clipped">
                                <mask id="mask-4" fill="white">
                                    <use xlink:href="#path-3"></use>
                                </mask>
                                <g id="c"></g>
                                <path d="M11.9533333,24.4087273 C11.9533333,29.3028182 9.48933333,31.8645 5.70093333,31.8645 C2.27626667,31.8645 0.2684,29.0764848 0.313866667,26.0121667 C0.3608,23.6312576 2.0944,22.4437424 3.5112,22.6274545 C4.5144,22.7641364 5.5176,23.4945758 5.3812,25.0965455 C5.24333333,27.3833939 2.77786667,27.2922727 2.68693333,28.712 C2.596,29.5791212 3.73706667,30.8577576 5.19493333,30.8577576 C7.7528,30.8577576 7.7528,27.6126667 7.7528,25.1406364 L7.7528,2.9599697 C7.7528,1.67839394 7.34213333,1.31390909 6.33746667,1.08463636 L5.19786667,0.808333333 L5.19786667,0.167545455 L14.1885333,0.167545455 L14.1885333,0.808333333 L13.1853333,1.08316667 C12.2730667,1.3109697 11.9533333,1.72248485 11.9533333,3.00406061 L11.9533333,24.4087273 Z" id="Path" fill="#1F1F1F" fill-rule="nonzero" mask="url(#mask-4)"></path>
                            </g>
                        </g>
                    </g>
                </g>
            </g>
        </g>
    </g>
</svg>